<svg id="svg" version="1.1" xmlns="http://www.w3.org/2000/svg" xmlns:xlink="http://www.w3.org/1999/xlink" width="400" height="400" viewBox="0, 0, 400,400"><g id="svgg"><path id="path0" d="M194.250 104.024 C 162.933 106.477,138.449 128.409,132.340 159.479 C 130.575 168.457,129.916 183.341,130.504 200.917 C 131.646 235.013,130.006 250.899,123.687 266.934 C 122.049 271.091,121.967 273.370,123.351 276.283 C 125.958 281.769,134.538 283.323,139.212 279.157 C 144.153 274.754,148.857 263.040,150.320 251.500 C 151.108 245.279,151.083 246.454,151.088 215.667 C 151.092 184.138,151.155 181.267,152.091 169.667 C 153.443 152.923,160.360 140.581,173.186 132.030 C 201.614 113.075,239.858 128.527,247.565 162.083 C 249.114 168.828,249.201 171.757,248.979 209.583 C 248.788 241.949,248.828 243.710,249.931 251.417 C 251.814 264.571,258.014 278.111,263.354 280.731 C 268.796 283.400,276.401 280.034,277.934 274.277 C 278.735 271.268,278.040 267.826,275.592 262.667 C 273.089 257.395,271.834 253.259,271.014 247.583 C 270.243 242.248,270.250 242.617,270.243 208.750 C 270.236 177.779,270.193 174.373,269.728 168.083 C 269.667 167.258,269.572 166.711,269.517 166.867 C 269.462 167.023,269.409 166.498,269.400 165.700 C 269.371 163.160,268.353 157.696,267.093 153.318 C 257.931 121.491,228.189 101.364,194.250 104.024 M197.125 104.115 C 196.965 104.157,196.702 104.157,196.542 104.115 C 196.381 104.073,196.512 104.039,196.833 104.039 C 197.154 104.039,197.285 104.073,197.125 104.115 M203.958 104.115 C 203.798 104.157,203.535 104.157,203.375 104.115 C 203.215 104.073,203.346 104.039,203.667 104.039 C 203.987 104.039,204.119 104.073,203.958 104.115 M153.667 121.552 C 153.667 121.581,153.423 121.825,153.125 122.094 L 152.583 122.583 153.073 122.042 C 153.529 121.537,153.667 121.423,153.667 121.552 M248.083 122.500 C 248.441 122.867,248.697 123.167,248.651 123.167 C 248.605 123.167,248.275 122.867,247.917 122.500 C 247.559 122.133,247.303 121.833,247.349 121.833 C 247.395 121.833,247.725 122.133,248.083 122.500 M150.167 125.052 C 150.167 125.081,149.923 125.325,149.625 125.594 L 149.083 126.083 149.573 125.542 C 150.029 125.037,150.167 124.923,150.167 125.052 M251.500 125.917 C 251.811 126.237,252.028 126.500,251.982 126.500 C 251.936 126.500,251.644 126.237,251.333 125.917 C 251.022 125.596,250.805 125.333,250.851 125.333 C 250.897 125.333,251.189 125.596,251.500 125.917 M167.500 136.052 C 167.500 136.081,167.256 136.325,166.958 136.594 L 166.417 137.083 166.906 136.542 C 167.362 136.037,167.500 135.923,167.500 136.052 M164.833 138.719 C 164.833 138.748,164.590 138.991,164.292 139.260 L 163.750 139.750 164.240 139.208 C 164.696 138.703,164.833 138.590,164.833 138.719 M223.917 146.667 C 224.553 147.308,225.112 147.833,225.158 147.833 C 225.204 147.833,224.720 147.308,224.083 146.667 C 223.447 146.025,222.888 145.500,222.842 145.500 C 222.796 145.500,223.280 146.025,223.917 146.667 M175.158 147.792 L 174.583 148.417 175.208 147.842 C 175.790 147.308,175.910 147.167,175.783 147.167 C 175.755 147.167,175.474 147.448,175.158 147.792 M190.077 162.542 L 189.250 163.417 190.125 162.590 C 190.606 162.135,191.000 161.741,191.000 161.715 C 191.000 161.590,190.846 161.729,190.077 162.542 M269.782 172.292 C 269.740 172.452,269.705 172.321,269.705 172.000 C 269.705 171.679,269.740 171.548,269.782 171.708 C 269.823 171.869,269.823 172.131,269.782 172.292 M130.785 176.040 C 130.745 176.247,130.711 176.117,130.709 175.750 C 130.707 175.383,130.739 175.214,130.781 175.373 C 130.823 175.532,130.824 175.832,130.785 176.040 M249.289 177.375 C 249.254 177.765,249.225 177.446,249.225 176.667 C 249.225 175.887,249.254 175.569,249.289 175.958 C 249.324 176.348,249.324 176.985,249.289 177.375 M269.951 176.542 C 269.911 176.748,269.879 176.579,269.879 176.167 C 269.879 175.754,269.911 175.585,269.951 175.792 C 269.991 175.998,269.991 176.335,269.951 176.542 M235.879 177.500 C 235.879 177.912,235.911 178.081,235.951 177.875 C 235.991 177.669,235.991 177.331,235.951 177.125 C 235.911 176.919,235.879 177.088,235.879 177.500 M130.618 180.042 C 130.578 180.248,130.545 180.079,130.545 179.667 C 130.545 179.254,130.578 179.085,130.618 179.292 C 130.657 179.498,130.657 179.835,130.618 180.042 M270.123 183.958 C 270.090 184.485,270.063 184.054,270.063 183.000 C 270.063 181.946,270.090 181.515,270.123 182.042 C 270.156 182.569,270.156 183.431,270.123 183.958 M163.885 183.417 C 163.886 183.967,163.917 184.172,163.954 183.872 C 163.991 183.572,163.990 183.122,163.952 182.872 C 163.914 182.622,163.884 182.867,163.885 183.417 M151.118 183.540 C 151.078 183.747,151.044 183.617,151.042 183.250 C 151.040 182.883,151.073 182.714,151.115 182.873 C 151.156 183.032,151.158 183.332,151.118 183.540 M236.052 185.083 C 236.053 185.633,236.084 185.838,236.121 185.539 C 236.158 185.239,236.157 184.789,236.119 184.539 C 236.081 184.288,236.051 184.533,236.052 185.083 M150.955 189.458 C 150.919 189.802,150.889 189.521,150.889 188.833 C 150.889 188.146,150.919 187.865,150.955 188.208 C 150.991 188.552,150.991 189.115,150.955 189.458 M163.732 195.000 C 163.732 196.237,163.758 196.744,163.790 196.125 C 163.822 195.506,163.822 194.494,163.790 193.875 C 163.758 193.256,163.732 193.762,163.732 195.000 M214.907 197.667 C 214.907 200.371,214.930 201.477,214.958 200.125 C 214.986 198.773,214.986 196.560,214.958 195.208 C 214.930 193.856,214.907 194.963,214.907 197.667 M249.291 196.451 C 249.259 197.165,249.234 196.625,249.233 195.250 C 249.233 193.875,249.259 193.290,249.290 193.951 C 249.322 194.611,249.322 195.736,249.291 196.451 M236.227 194.833 C 236.227 195.704,236.255 196.060,236.289 195.625 C 236.324 195.190,236.324 194.477,236.289 194.042 C 236.255 193.606,236.227 193.963,236.227 194.833 M270.124 198.033 C 270.094 198.886,270.069 198.233,270.069 196.583 C 270.069 194.933,270.093 194.236,270.124 195.033 C 270.154 195.831,270.155 197.181,270.124 198.033 M130.621 196.708 C 130.584 197.006,130.553 196.762,130.553 196.167 C 130.553 195.571,130.584 195.327,130.621 195.625 C 130.658 195.923,130.658 196.410,130.621 196.708 M130.787 203.042 C 130.750 203.340,130.720 203.096,130.720 202.500 C 130.720 201.904,130.750 201.660,130.787 201.958 C 130.824 202.256,130.824 202.744,130.787 203.042 M130.955 209.958 C 130.919 210.302,130.889 210.021,130.889 209.333 C 130.889 208.646,130.919 208.365,130.955 208.708 C 130.991 209.052,130.991 209.615,130.955 209.958 M150.957 218.042 C 150.925 218.706,150.900 218.162,150.900 216.833 C 150.900 215.504,150.925 214.960,150.957 215.625 C 150.989 216.290,150.989 217.377,150.957 218.042 M131.125 222.958 C 131.096 224.219,131.073 223.188,131.073 220.667 C 131.073 218.146,131.096 217.115,131.125 218.375 C 131.153 219.635,131.153 221.698,131.125 222.958 M236.223 219.500 C 236.223 220.188,236.252 220.469,236.288 220.125 C 236.324 219.781,236.324 219.219,236.288 218.875 C 236.252 218.531,236.223 218.813,236.223 219.500 M163.735 224.083 C 163.735 225.642,163.760 226.302,163.791 225.550 C 163.821 224.798,163.821 223.523,163.791 222.717 C 163.760 221.910,163.735 222.525,163.735 224.083 M249.122 225.875 C 249.087 226.265,249.058 225.946,249.058 225.167 C 249.058 224.387,249.087 224.069,249.122 224.458 C 249.157 224.848,249.157 225.485,249.122 225.875 M236.039 226.333 C 236.039 226.654,236.073 226.785,236.115 226.625 C 236.157 226.465,236.157 226.202,236.115 226.042 C 236.073 225.881,236.039 226.012,236.039 226.333 M214.905 231.167 C 214.905 233.229,214.929 234.073,214.958 233.042 C 214.987 232.010,214.987 230.323,214.958 229.292 C 214.929 228.260,214.905 229.104,214.905 231.167 M130.953 230.456 C 130.915 230.709,130.882 230.542,130.881 230.083 C 130.880 229.625,130.911 229.418,130.951 229.623 C 130.990 229.828,130.991 230.203,130.953 230.456 M185.718 230.583 C 185.719 231.133,185.750 231.338,185.787 231.039 C 185.825 230.739,185.824 230.289,185.786 230.039 C 185.748 229.788,185.717 230.033,185.718 230.583 M269.957 233.535 C 269.924 234.112,269.897 233.683,269.897 232.583 C 269.897 231.483,269.923 231.012,269.956 231.535 C 269.989 232.059,269.990 232.959,269.957 233.535 M235.892 232.250 C 235.892 233.075,235.920 233.434,235.955 233.047 C 235.990 232.660,235.990 231.985,235.956 231.547 C 235.922 231.109,235.893 231.425,235.892 232.250 M235.892 235.917 C 235.892 236.742,235.920 237.100,235.955 236.713 C 235.990 236.327,235.990 235.652,235.956 235.213 C 235.922 234.775,235.893 235.092,235.892 235.917 M185.717 238.333 C 185.717 238.838,185.748 239.044,185.786 238.792 C 185.824 238.540,185.824 238.127,185.786 237.875 C 185.748 237.623,185.717 237.829,185.717 238.333 M249.120 239.123 C 249.081 239.376,249.049 239.208,249.048 238.750 C 249.046 238.292,249.078 238.084,249.117 238.289 C 249.157 238.494,249.158 238.869,249.120 239.123 M150.951 242.042 C 150.911 242.248,150.879 242.079,150.879 241.667 C 150.879 241.254,150.911 241.085,150.951 241.292 C 150.991 241.498,150.991 241.835,150.951 242.042 M215.039 244.833 C 215.039 245.154,215.073 245.285,215.115 245.125 C 215.157 244.965,215.157 244.702,215.115 244.542 C 215.073 244.381,215.039 244.512,215.039 244.833 M122.619 272.625 C 122.581 272.877,122.550 272.671,122.550 272.167 C 122.550 271.662,122.581 271.456,122.619 271.708 C 122.658 271.960,122.658 272.373,122.619 272.625 M125.250 278.333 C 125.608 278.700,125.863 279.000,125.818 279.000 C 125.772 279.000,125.441 278.700,125.083 278.333 C 124.725 277.967,124.470 277.667,124.516 277.667 C 124.562 277.667,124.892 277.967,125.250 278.333 M140.333 277.716 C 140.333 277.743,140.015 278.062,139.625 278.425 L 138.917 279.083 139.575 278.375 C 140.188 277.716,140.333 277.590,140.333 277.716 M138.944 304.444 C 138.792 304.597,138.804 305.500,138.958 305.500 C 139.027 305.499,139.089 305.237,139.096 304.916 C 139.109 304.284,139.108 304.281,138.944 304.444 M141.583 311.333 C 141.941 311.700,142.272 312.000,142.318 312.000 C 142.363 312.000,142.108 311.700,141.750 311.333 C 141.392 310.967,141.062 310.667,141.016 310.667 C 140.970 310.667,141.225 310.967,141.583 311.333 M258.409 311.875 L 257.750 312.583 258.458 311.925 C 259.117 311.312,259.243 311.167,259.117 311.167 C 259.090 311.167,258.771 311.485,258.409 311.875 M158.000 312.250 C 157.595 312.662,157.301 313.000,157.347 313.000 C 157.393 313.000,157.762 312.662,158.167 312.250 C 158.572 311.837,158.865 311.500,158.819 311.500 C 158.774 311.500,158.405 311.837,158.000 312.250 " stroke="none" fill="#ec4434" fill-rule="evenodd"></path><path id="path1" d="M153.073 122.042 L 152.583 122.583 153.125 122.094 C 153.423 121.825,153.667 121.581,153.667 121.552 C 153.667 121.423,153.529 121.537,153.073 122.042 M247.917 122.500 C 248.275 122.867,248.605 123.167,248.651 123.167 C 248.697 123.167,248.441 122.867,248.083 122.500 C 247.725 122.133,247.395 121.833,247.349 121.833 C 247.303 121.833,247.559 122.133,247.917 122.500 M251.333 125.917 C 251.644 126.237,251.936 126.500,251.982 126.500 C 252.028 126.500,251.811 126.237,251.500 125.917 C 251.189 125.596,250.897 125.333,250.851 125.333 C 250.805 125.333,251.022 125.596,251.333 125.917 M166.906 136.542 L 166.417 137.083 166.958 136.594 C 167.256 136.325,167.500 136.081,167.500 136.052 C 167.500 135.923,167.362 136.037,166.906 136.542 M197.917 137.172 C 195.196 137.407,194.478 137.503,192.883 137.847 C 190.123 138.442,185.667 139.983,185.667 140.344 C 185.667 140.424,185.573 140.454,185.458 140.411 C 184.964 140.223,178.732 144.201,178.955 144.562 C 179.008 144.648,178.973 144.670,178.878 144.611 C 178.657 144.475,176.636 146.283,174.973 148.102 C 168.069 155.661,164.403 165.921,164.054 178.667 C 163.758 189.454,163.593 216.535,163.780 223.417 C 163.989 231.076,163.779 246.376,163.426 249.167 C 163.270 250.404,163.118 251.740,163.088 252.136 C 163.058 252.532,162.989 252.900,162.933 252.955 C 162.878 253.011,162.833 253.226,162.833 253.433 C 162.833 253.641,162.635 254.847,162.393 256.114 C 162.151 257.380,161.936 258.567,161.915 258.750 C 161.893 258.933,161.833 259.196,161.779 259.333 C 161.631 259.715,160.454 264.382,160.434 264.667 C 160.425 264.804,160.379 264.954,160.333 265.000 C 160.287 265.046,159.922 266.058,159.520 267.250 C 157.877 272.128,155.666 277.160,153.299 281.408 C 152.737 282.416,152.278 283.333,152.278 283.446 C 152.278 283.559,152.221 283.617,152.151 283.574 C 152.019 283.492,151.740 284.148,151.804 284.387 C 151.825 284.463,151.770 284.481,151.683 284.427 C 151.517 284.324,151.233 284.960,151.314 285.250 C 151.340 285.342,151.304 285.360,151.234 285.290 C 151.074 285.129,149.659 287.353,149.789 287.563 C 149.842 287.648,149.798 287.665,149.692 287.599 C 149.511 287.487,149.419 287.711,149.494 288.083 C 149.513 288.175,149.476 288.198,149.412 288.134 C 149.283 288.005,146.392 291.982,146.458 292.198 C 146.481 292.272,146.436 292.315,146.358 292.292 C 145.977 292.180,140.733 298.870,140.940 299.204 C 141.001 299.304,140.976 299.338,140.883 299.281 C 140.651 299.137,139.603 301.348,139.278 302.667 C 138.838 304.454,139.115 308.167,139.689 308.167 C 139.779 308.167,139.806 308.243,139.748 308.337 C 139.481 308.769,142.311 312.303,142.721 312.050 C 142.811 311.994,142.839 312.023,142.783 312.114 C 142.567 312.463,146.604 314.995,146.992 314.755 C 147.073 314.705,147.164 314.742,147.196 314.838 C 147.282 315.096,148.943 315.482,150.083 315.509 C 151.709 315.548,152.667 315.496,152.667 315.369 C 152.667 315.304,152.894 315.242,153.170 315.232 C 154.478 315.185,159.103 311.904,158.724 311.291 C 158.663 311.193,158.694 311.164,158.795 311.226 C 158.988 311.345,160.593 309.280,162.339 306.667 C 162.920 305.796,164.384 303.771,165.592 302.167 C 169.758 296.632,174.943 288.248,174.571 287.647 C 174.500 287.532,174.519 287.492,174.617 287.552 C 174.829 287.684,175.209 286.875,175.059 286.613 C 174.997 286.505,175.009 286.474,175.086 286.543 C 175.244 286.687,176.542 284.035,176.414 283.829 C 176.369 283.755,176.406 283.670,176.498 283.639 C 176.904 283.503,180.634 273.518,180.412 273.160 C 180.368 273.087,180.393 273.003,180.467 272.973 C 180.656 272.895,181.870 268.694,181.756 268.510 C 181.706 268.429,181.728 268.337,181.806 268.306 C 182.014 268.224,183.893 259.650,183.803 259.196 C 183.790 259.134,183.825 258.971,183.880 258.833 C 184.108 258.265,185.091 250.321,185.253 247.750 C 185.305 246.925,185.426 245.237,185.524 244.000 C 185.759 241.003,185.756 227.872,185.519 224.000 C 185.288 220.226,185.268 173.625,185.497 172.896 C 185.580 172.632,185.771 171.779,185.923 171.000 C 186.394 168.577,187.221 166.450,188.428 164.557 C 188.729 164.085,188.925 163.647,188.863 163.585 C 188.801 163.523,188.825 163.497,188.917 163.528 C 189.008 163.558,189.420 163.218,189.831 162.772 C 191.168 161.321,194.455 159.343,195.542 159.335 C 195.702 159.334,195.833 159.254,195.833 159.157 C 195.833 159.060,195.892 159.017,195.965 159.061 C 196.037 159.106,196.806 159.036,197.673 158.906 C 204.320 157.908,209.557 160.131,212.421 165.167 C 214.972 169.651,215.269 173.938,214.939 201.417 C 214.806 212.523,214.991 243.359,215.211 246.500 C 215.259 247.188,215.345 248.463,215.401 249.333 C 215.778 255.099,217.152 263.034,218.835 269.159 C 219.914 273.085,221.308 277.333,221.517 277.333 C 221.610 277.333,221.644 277.401,221.593 277.484 C 221.470 277.683,222.168 279.500,222.366 279.500 C 222.451 279.500,222.477 279.569,222.425 279.653 C 222.200 280.017,227.062 290.418,227.369 290.228 C 227.446 290.181,227.488 290.205,227.462 290.283 C 227.376 290.547,228.046 291.825,228.216 291.720 C 228.309 291.662,228.340 291.687,228.286 291.775 C 228.186 291.936,229.204 293.883,229.342 293.796 C 229.383 293.771,229.398 293.781,229.375 293.819 C 229.308 293.932,230.123 295.270,231.697 297.631 C 233.724 300.672,234.102 301.174,234.255 301.036 C 234.327 300.970,234.340 300.998,234.284 301.098 C 234.125 301.377,237.938 306.279,241.628 310.542 C 243.184 312.339,244.933 313.894,245.208 313.725 C 245.308 313.663,245.336 313.694,245.274 313.795 C 245.142 314.008,247.461 315.217,247.772 315.098 C 247.886 315.054,248.002 315.089,248.031 315.175 C 248.233 315.778,252.163 315.617,253.846 314.938 C 256.729 313.773,261.369 309.335,260.750 308.334 C 260.693 308.242,260.717 308.167,260.802 308.167 C 261.413 308.167,261.626 303.982,261.102 302.250 C 260.539 300.386,258.322 296.551,257.942 296.786 C 257.854 296.840,257.828 296.811,257.883 296.720 C 258.003 296.527,256.210 294.231,255.986 294.292 C 255.902 294.315,255.852 294.273,255.875 294.199 C 255.943 293.979,252.550 289.673,252.409 289.800 C 252.338 289.864,252.327 289.834,252.384 289.734 C 252.441 289.633,252.150 289.085,251.736 288.517 C 249.582 285.556,247.118 281.380,245.040 277.167 C 244.248 275.563,243.540 274.225,243.466 274.194 C 243.392 274.163,243.370 274.075,243.418 273.998 C 243.515 273.841,243.171 273.000,243.009 273.000 C 242.952 273.000,242.897 272.869,242.887 272.708 C 242.877 272.548,242.589 271.704,242.247 270.833 C 240.604 266.650,238.996 261.267,238.164 257.167 C 237.969 256.204,237.768 255.304,237.718 255.167 C 237.668 255.029,237.605 254.729,237.578 254.500 C 237.552 254.271,237.304 252.546,237.028 250.667 C 236.752 248.787,236.439 246.012,236.332 244.500 C 236.224 242.987,236.083 241.450,236.018 241.083 C 235.873 240.271,235.947 228.234,236.123 224.083 C 236.309 219.680,236.231 190.099,236.014 182.833 C 235.911 179.396,235.827 176.171,235.827 175.667 C 235.827 175.162,235.716 173.925,235.580 172.917 C 235.444 171.908,235.329 170.935,235.325 170.754 C 235.299 169.545,234.317 165.321,233.387 162.420 C 232.282 158.972,229.531 153.191,229.117 153.447 C 229.024 153.505,228.998 153.471,229.059 153.372 C 229.535 152.603,221.369 143.482,220.619 143.946 C 220.525 144.004,220.491 143.982,220.543 143.898 C 220.757 143.553,215.897 140.509,215.584 140.792 C 215.508 140.861,215.496 140.831,215.556 140.726 C 215.685 140.499,215.220 140.284,214.943 140.443 C 214.837 140.504,214.805 140.493,214.872 140.419 C 215.237 140.015,207.266 137.345,206.872 137.739 C 206.822 137.789,206.691 137.756,206.582 137.665 C 206.472 137.574,205.903 137.454,205.316 137.397 C 201.196 136.997,200.263 136.969,197.917 137.172 M269.705 172.000 C 269.705 172.321,269.740 172.452,269.782 172.292 C 269.823 172.131,269.823 171.869,269.782 171.708 C 269.740 171.548,269.705 171.679,269.705 172.000 M130.705 175.667 C 130.705 175.987,130.740 176.119,130.782 175.958 C 130.823 175.798,130.823 175.535,130.782 175.375 C 130.740 175.215,130.705 175.346,130.705 175.667 M249.225 176.667 C 249.225 177.446,249.254 177.765,249.289 177.375 C 249.324 176.985,249.324 176.348,249.289 175.958 C 249.254 175.569,249.225 175.887,249.225 176.667 M269.875 176.083 C 269.877 176.450,269.911 176.580,269.951 176.373 C 269.991 176.166,269.990 175.866,269.948 175.706 C 269.906 175.547,269.874 175.717,269.875 176.083 M130.542 179.583 C 130.544 179.950,130.578 180.080,130.618 179.873 C 130.658 179.666,130.656 179.366,130.615 179.206 C 130.573 179.047,130.540 179.217,130.542 179.583 M270.060 182.667 C 270.060 183.537,270.088 183.894,270.123 183.458 C 270.157 183.023,270.157 182.310,270.123 181.875 C 270.088 181.440,270.060 181.796,270.060 182.667 M151.039 183.333 C 151.039 183.654,151.073 183.785,151.115 183.625 C 151.157 183.465,151.157 183.202,151.115 183.042 C 151.073 182.881,151.039 183.012,151.039 183.333 M150.888 188.917 C 150.889 189.558,150.919 189.800,150.955 189.455 C 150.991 189.109,150.990 188.584,150.954 188.288 C 150.917 187.992,150.887 188.275,150.888 188.917 M249.233 195.250 C 249.234 196.625,249.259 197.165,249.291 196.451 C 249.322 195.736,249.322 194.611,249.290 193.951 C 249.259 193.290,249.233 193.875,249.233 195.250 M270.066 197.167 C 270.066 198.496,270.092 199.040,270.124 198.375 C 270.155 197.710,270.155 196.623,270.124 195.958 C 270.092 195.294,270.066 195.838,270.066 197.167 M130.550 196.333 C 130.550 196.838,130.581 197.044,130.619 196.792 C 130.658 196.540,130.658 196.127,130.619 195.875 C 130.581 195.623,130.550 195.829,130.550 196.333 M130.717 202.667 C 130.717 203.171,130.748 203.377,130.786 203.125 C 130.824 202.873,130.824 202.460,130.786 202.208 C 130.748 201.956,130.717 202.162,130.717 202.667 M130.888 209.417 C 130.889 210.058,130.919 210.300,130.955 209.955 C 130.991 209.609,130.990 209.084,130.954 208.788 C 130.917 208.492,130.887 208.775,130.888 209.417 M150.899 216.750 C 150.899 218.033,150.926 218.536,150.957 217.868 C 150.989 217.199,150.989 216.149,150.957 215.534 C 150.925 214.920,150.899 215.467,150.899 216.750 M131.072 220.667 C 131.072 222.821,131.095 223.702,131.124 222.625 C 131.153 221.548,131.153 219.785,131.124 218.708 C 131.095 217.631,131.072 218.512,131.072 220.667 M249.058 225.167 C 249.058 225.946,249.087 226.265,249.122 225.875 C 249.157 225.485,249.157 224.848,249.122 224.458 C 249.087 224.069,249.058 224.387,249.058 225.167 M130.879 230.000 C 130.879 230.412,130.911 230.581,130.951 230.375 C 130.991 230.169,130.991 229.831,130.951 229.625 C 130.911 229.419,130.879 229.588,130.879 230.000 M249.048 238.750 C 249.049 239.208,249.081 239.376,249.120 239.123 C 249.158 238.869,249.157 238.494,249.117 238.289 C 249.078 238.084,249.046 238.292,249.048 238.750 M150.875 241.750 C 150.877 242.117,150.911 242.247,150.951 242.040 C 150.991 241.832,150.990 241.532,150.948 241.373 C 150.906 241.214,150.874 241.383,150.875 241.750 M122.550 272.167 C 122.550 272.671,122.581 272.877,122.619 272.625 C 122.658 272.373,122.658 271.960,122.619 271.708 C 122.581 271.456,122.550 271.662,122.550 272.167 M139.575 278.375 L 138.917 279.083 139.625 278.425 C 140.284 277.812,140.410 277.667,140.284 277.667 C 140.257 277.667,139.938 277.985,139.575 278.375 " stroke="none" fill="#fcbc04" fill-rule="evenodd"></path><path id="path2" d="M194.417 70.012 C 162.356 71.645,135.034 86.204,116.719 111.417 C 100.041 134.376,94.502 156.772,95.984 195.250 C 96.168 200.048,96.520 207.930,96.828 214.167 C 96.916 215.954,97.033 219.254,97.088 221.500 C 97.223 227.098,97.477 228.672,98.488 230.176 C 102.698 236.445,113.068 235.491,115.647 228.597 C 117.164 224.543,117.972 211.008,117.732 193.667 C 117.475 175.099,117.579 169.061,118.266 162.750 C 123.133 118.022,166.639 83.931,210.333 90.607 C 249.966 96.662,278.240 125.325,282.237 163.500 C 282.845 169.307,282.907 172.334,282.926 197.083 C 282.948 226.133,282.974 226.510,285.181 229.814 C 288.832 235.282,299.659 234.867,302.358 229.156 C 303.962 225.764,304.043 224.691,304.047 206.750 C 304.056 169.241,304.044 168.607,303.160 161.369 C 296.374 105.773,250.413 67.160,194.417 70.012 M201.800 70.124 C 201.094 70.155,199.894 70.155,199.133 70.124 C 198.372 70.093,198.950 70.068,200.417 70.067 C 201.883 70.067,202.506 70.093,201.800 70.124 M131.167 95.719 C 131.167 95.748,130.923 95.991,130.625 96.260 L 130.083 96.750 130.573 96.208 C 131.029 95.703,131.167 95.590,131.167 95.719 M272.333 98.785 C 272.333 98.910,272.184 98.778,271.493 98.042 L 270.750 97.250 271.542 97.993 C 271.977 98.402,272.333 98.758,272.333 98.785 M275.583 102.000 C 275.941 102.367,276.197 102.667,276.151 102.667 C 276.105 102.667,275.775 102.367,275.417 102.000 C 275.059 101.633,274.803 101.333,274.849 101.333 C 274.895 101.333,275.225 101.633,275.583 102.000 M125.333 101.552 C 125.333 101.581,125.090 101.825,124.792 102.094 L 124.250 102.583 124.740 102.042 C 125.196 101.537,125.333 101.423,125.333 101.552 M142.833 113.046 C 142.833 113.072,142.290 113.615,141.625 114.254 L 140.417 115.417 141.579 114.208 C 142.658 113.086,142.833 112.924,142.833 113.046 M282.951 170.373 C 282.911 170.580,282.877 170.450,282.875 170.083 C 282.874 169.717,282.906 169.547,282.948 169.706 C 282.990 169.866,282.991 170.166,282.951 170.373 M117.448 172.125 C 117.406 172.285,117.372 172.154,117.372 171.833 C 117.372 171.512,117.406 171.381,117.448 171.542 C 117.490 171.702,117.490 171.965,117.448 172.125 M303.787 172.872 C 303.750 173.172,303.719 172.967,303.718 172.417 C 303.717 171.867,303.748 171.622,303.786 171.872 C 303.824 172.122,303.825 172.572,303.787 172.872 M283.118 174.875 C 283.078 175.081,283.045 174.912,283.045 174.500 C 283.045 174.088,283.078 173.919,283.118 174.125 C 283.157 174.331,283.157 174.669,283.118 174.875 M96.120 176.289 C 96.081 176.543,96.049 176.375,96.048 175.917 C 96.046 175.458,96.078 175.251,96.117 175.456 C 96.157 175.661,96.158 176.036,96.120 176.289 M283.290 182.952 C 283.257 183.483,283.229 183.092,283.229 182.083 C 283.229 181.075,283.256 180.641,283.289 181.119 C 283.323 181.597,283.323 182.422,283.290 182.952 M303.790 184.786 C 303.757 185.316,303.729 184.925,303.729 183.917 C 303.729 182.908,303.756 182.474,303.789 182.952 C 303.823 183.430,303.823 184.255,303.790 184.786 M117.453 186.289 C 117.415 186.543,117.382 186.375,117.381 185.917 C 117.380 185.458,117.411 185.251,117.451 185.456 C 117.490 185.661,117.491 186.036,117.453 186.289 M130.231 187.250 C 130.232 188.442,130.258 188.907,130.290 188.285 C 130.323 187.662,130.322 186.687,130.290 186.118 C 130.257 185.549,130.231 186.058,130.231 187.250 M96.119 191.625 C 96.081 191.877,96.050 191.671,96.050 191.167 C 96.050 190.662,96.081 190.456,96.119 190.708 C 96.158 190.960,96.158 191.373,96.119 191.625 M283.291 194.617 C 283.259 195.332,283.234 194.792,283.233 193.417 C 283.233 192.042,283.259 191.457,283.290 192.117 C 283.322 192.778,283.322 193.903,283.291 194.617 M117.622 193.955 C 117.586 194.300,117.555 194.058,117.555 193.417 C 117.554 192.775,117.583 192.492,117.620 192.788 C 117.657 193.084,117.658 193.609,117.622 193.955 M96.285 197.040 C 96.245 197.247,96.211 197.117,96.209 196.750 C 96.207 196.383,96.239 196.214,96.281 196.373 C 96.323 196.532,96.324 196.832,96.285 197.040 M303.958 202.865 C 303.929 203.994,303.905 203.117,303.905 200.917 C 303.905 198.717,303.929 197.794,303.958 198.865 C 303.987 199.937,303.987 201.737,303.958 202.865 M96.618 204.373 C 96.578 204.580,96.544 204.450,96.542 204.083 C 96.540 203.717,96.573 203.547,96.615 203.706 C 96.656 203.866,96.658 204.166,96.618 204.373 M117.620 205.789 C 117.581 206.043,117.549 205.875,117.548 205.417 C 117.546 204.958,117.578 204.751,117.617 204.956 C 117.657 205.161,117.658 205.536,117.620 205.789 M96.782 208.292 C 96.740 208.452,96.705 208.321,96.705 208.000 C 96.705 207.679,96.740 207.548,96.782 207.708 C 96.823 207.869,96.823 208.131,96.782 208.292 M303.957 211.784 C 303.926 212.499,303.900 211.958,303.900 210.583 C 303.900 209.208,303.925 208.624,303.957 209.284 C 303.988 209.944,303.989 211.069,303.957 211.784 M117.448 210.125 C 117.406 210.285,117.372 210.154,117.372 209.833 C 117.372 209.512,117.406 209.381,117.448 209.542 C 117.490 209.702,117.490 209.965,117.448 210.125 M96.948 211.625 C 96.906 211.785,96.872 211.654,96.872 211.333 C 96.872 211.012,96.906 210.881,96.948 211.042 C 96.990 211.202,96.990 211.465,96.948 211.625 M151.048 212.083 C 151.049 212.542,151.081 212.709,151.120 212.456 C 151.158 212.203,151.157 211.828,151.117 211.623 C 151.078 211.418,151.046 211.625,151.048 212.083 M117.285 214.040 C 117.245 214.247,117.211 214.117,117.209 213.750 C 117.207 213.383,117.239 213.214,117.281 213.373 C 117.323 213.532,117.324 213.832,117.285 214.040 M97.118 215.040 C 97.078 215.247,97.044 215.117,97.042 214.750 C 97.040 214.383,97.073 214.214,97.115 214.373 C 97.156 214.532,97.158 214.832,97.118 215.040 M97.284 219.542 C 97.245 219.748,97.212 219.579,97.212 219.167 C 97.212 218.754,97.245 218.585,97.284 218.792 C 97.324 218.998,97.324 219.335,97.284 219.542 M270.227 221.000 C 270.227 221.871,270.255 222.227,270.289 221.792 C 270.324 221.356,270.324 220.644,270.289 220.208 C 270.255 219.773,270.227 220.129,270.227 221.000 M303.784 221.708 C 303.745 221.915,303.712 221.746,303.712 221.333 C 303.712 220.921,303.745 220.752,303.784 220.958 C 303.824 221.165,303.824 221.502,303.784 221.708 M97.454 225.039 C 97.417 225.338,97.386 225.133,97.385 224.583 C 97.384 224.033,97.414 223.788,97.452 224.039 C 97.490 224.289,97.491 224.739,97.454 225.039 M151.239 232.667 C 151.239 235.096,151.263 236.090,151.291 234.875 C 151.320 233.660,151.320 231.673,151.291 230.458 C 151.263 229.244,151.239 230.237,151.239 232.667 M100.000 231.417 C 100.311 231.737,100.528 232.000,100.482 232.000 C 100.436 232.000,100.144 231.737,99.833 231.417 C 99.522 231.096,99.305 230.833,99.351 230.833 C 99.397 230.833,99.689 231.096,100.000 231.417 M293.875 233.451 C 293.669 233.491,293.331 233.491,293.125 233.451 C 292.919 233.411,293.087 233.379,293.500 233.379 C 293.912 233.379,294.081 233.411,293.875 233.451 M278.205 271.667 C 278.205 271.987,278.240 272.119,278.282 271.958 C 278.323 271.798,278.323 271.535,278.282 271.375 C 278.240 271.215,278.205 271.346,278.205 271.667 M132.375 281.615 C 132.535 281.657,132.798 281.657,132.958 281.615 C 133.119 281.573,132.987 281.539,132.667 281.539 C 132.346 281.539,132.215 281.573,132.375 281.615 " stroke="none" fill="#4484f4" fill-rule="evenodd"></path><path id="path3" d="M270.042 194.250 C 270.044 194.617,270.078 194.747,270.118 194.540 C 270.158 194.332,270.156 194.032,270.115 193.873 C 270.073 193.714,270.040 193.883,270.042 194.250 M269.897 232.583 C 269.897 233.683,269.924 234.112,269.957 233.535 C 269.990 232.959,269.989 232.059,269.956 231.535 C 269.923 231.012,269.897 231.483,269.897 232.583 " stroke="none" fill="#f0804c" fill-rule="evenodd"></path><path id="path4" d="M199.133 70.124 C 199.894 70.155,201.094 70.155,201.800 70.124 C 202.506 70.093,201.883 70.067,200.417 70.067 C 198.950 70.068,198.372 70.093,199.133 70.124 M130.573 96.208 L 130.083 96.750 130.625 96.260 C 130.923 95.991,131.167 95.748,131.167 95.719 C 131.167 95.590,131.029 95.703,130.573 96.208 M271.493 98.042 C 272.184 98.778,272.333 98.910,272.333 98.785 C 272.333 98.758,271.977 98.402,271.542 97.993 L 270.750 97.250 271.493 98.042 M275.417 102.000 C 275.775 102.367,276.105 102.667,276.151 102.667 C 276.197 102.667,275.941 102.367,275.583 102.000 C 275.225 101.633,274.895 101.333,274.849 101.333 C 274.803 101.333,275.059 101.633,275.417 102.000 M124.740 102.042 L 124.250 102.583 124.792 102.094 C 125.297 101.638,125.410 101.500,125.281 101.500 C 125.252 101.500,125.009 101.744,124.740 102.042 M141.579 114.208 L 140.417 115.417 141.625 114.254 C 142.747 113.175,142.909 113.000,142.787 113.000 C 142.762 113.000,142.218 113.544,141.579 114.208 M282.875 170.083 C 282.877 170.450,282.911 170.580,282.951 170.373 C 282.991 170.166,282.990 169.866,282.948 169.706 C 282.906 169.547,282.874 169.717,282.875 170.083 M117.372 171.833 C 117.372 172.154,117.406 172.285,117.448 172.125 C 117.490 171.965,117.490 171.702,117.448 171.542 C 117.406 171.381,117.372 171.512,117.372 171.833 M303.718 172.417 C 303.719 172.967,303.750 173.172,303.787 172.872 C 303.825 172.572,303.824 172.122,303.786 171.872 C 303.748 171.622,303.717 171.867,303.718 172.417 M283.045 174.500 C 283.045 174.912,283.078 175.081,283.118 174.875 C 283.157 174.669,283.157 174.331,283.118 174.125 C 283.078 173.919,283.045 174.088,283.045 174.500 M96.048 175.917 C 96.049 176.375,96.081 176.543,96.120 176.289 C 96.158 176.036,96.157 175.661,96.117 175.456 C 96.078 175.251,96.046 175.458,96.048 175.917 M283.229 182.083 C 283.229 183.092,283.257 183.483,283.290 182.952 C 283.323 182.422,283.323 181.597,283.289 181.119 C 283.256 180.641,283.229 181.075,283.229 182.083 M303.729 183.917 C 303.729 184.925,303.757 185.316,303.790 184.786 C 303.823 184.255,303.823 183.430,303.789 182.952 C 303.756 182.474,303.729 182.908,303.729 183.917 M117.381 185.917 C 117.382 186.375,117.415 186.543,117.453 186.289 C 117.491 186.036,117.490 185.661,117.451 185.456 C 117.411 185.251,117.380 185.458,117.381 185.917 M96.050 191.167 C 96.050 191.671,96.081 191.877,96.119 191.625 C 96.158 191.373,96.158 190.960,96.119 190.708 C 96.081 190.456,96.050 190.662,96.050 191.167 M283.233 193.417 C 283.234 194.792,283.259 195.332,283.291 194.617 C 283.322 193.903,283.322 192.778,283.290 192.117 C 283.259 191.457,283.233 192.042,283.233 193.417 M117.555 193.417 C 117.555 194.058,117.586 194.300,117.622 193.955 C 117.658 193.609,117.657 193.084,117.620 192.788 C 117.583 192.492,117.554 192.775,117.555 193.417 M96.209 196.750 C 96.211 197.117,96.245 197.247,96.285 197.040 C 96.324 196.832,96.323 196.532,96.281 196.373 C 96.239 196.214,96.207 196.383,96.209 196.750 M303.905 200.917 C 303.905 203.117,303.929 203.994,303.958 202.865 C 303.987 201.737,303.987 199.937,303.958 198.865 C 303.929 197.794,303.905 198.717,303.905 200.917 M96.542 204.083 C 96.544 204.450,96.578 204.580,96.618 204.373 C 96.658 204.166,96.656 203.866,96.615 203.706 C 96.573 203.547,96.540 203.717,96.542 204.083 M117.548 205.417 C 117.549 205.875,117.581 206.043,117.620 205.789 C 117.658 205.536,117.657 205.161,117.617 204.956 C 117.578 204.751,117.546 204.958,117.548 205.417 M96.705 208.000 C 96.705 208.321,96.740 208.452,96.782 208.292 C 96.823 208.131,96.823 207.869,96.782 207.708 C 96.740 207.548,96.705 207.679,96.705 208.000 M303.900 210.583 C 303.900 211.958,303.926 212.499,303.957 211.784 C 303.989 211.069,303.988 209.944,303.957 209.284 C 303.925 208.624,303.900 209.208,303.900 210.583 M117.372 209.833 C 117.372 210.154,117.406 210.285,117.448 210.125 C 117.490 209.965,117.490 209.702,117.448 209.542 C 117.406 209.381,117.372 209.512,117.372 209.833 M96.872 211.333 C 96.872 211.654,96.906 211.785,96.948 211.625 C 96.990 211.465,96.990 211.202,96.948 211.042 C 96.906 210.881,96.872 211.012,96.872 211.333 M117.209 213.750 C 117.211 214.117,117.245 214.247,117.285 214.040 C 117.324 213.832,117.323 213.532,117.281 213.373 C 117.239 213.214,117.207 213.383,117.209 213.750 M97.042 214.750 C 97.044 215.117,97.078 215.247,97.118 215.040 C 97.158 214.832,97.156 214.532,97.115 214.373 C 97.073 214.214,97.040 214.383,97.042 214.750 M97.212 219.167 C 97.212 219.579,97.245 219.748,97.284 219.542 C 97.324 219.335,97.324 218.998,97.284 218.792 C 97.245 218.585,97.212 218.754,97.212 219.167 M303.712 221.333 C 303.712 221.746,303.745 221.915,303.784 221.708 C 303.824 221.502,303.824 221.165,303.784 220.958 C 303.745 220.752,303.712 220.921,303.712 221.333 M97.385 224.583 C 97.386 225.133,97.417 225.338,97.454 225.039 C 97.491 224.739,97.490 224.289,97.452 224.039 C 97.414 223.788,97.384 224.033,97.385 224.583 M99.833 231.417 C 100.144 231.737,100.436 232.000,100.482 232.000 C 100.528 232.000,100.311 231.737,100.000 231.417 C 99.689 231.096,99.397 230.833,99.351 230.833 C 99.305 230.833,99.522 231.096,99.833 231.417 M293.125 233.451 C 293.331 233.491,293.669 233.491,293.875 233.451 C 294.081 233.411,293.912 233.379,293.500 233.379 C 293.087 233.379,292.919 233.411,293.125 233.451 " stroke="none" fill="#a480c8" fill-rule="evenodd"></path></g></svg>