<?xml version="1.0" encoding="UTF-8" standalone="no"?>
<svg
   xmlns:dc="http://purl.org/dc/elements/1.1/"
   xmlns:cc="http://creativecommons.org/ns#"
   xmlns:rdf="http://www.w3.org/1999/02/22-rdf-syntax-ns#"
   xmlns:svg="http://www.w3.org/2000/svg"
   xmlns="http://www.w3.org/2000/svg"
   xmlns:sodipodi="http://sodipodi.sourceforge.net/DTD/sodipodi-0.dtd"
   xmlns:inkscape="http://www.inkscape.org/namespaces/inkscape"
   version="1.1"
   id="Icons"
   x="0px"
   y="0px"
   viewBox="0 0 32 32"
   style="enable-background:new 0 0 32 32;"
   xml:space="preserve"
   sodipodi:docname="9293099951595156175.svg"
   inkscape:version="1.0.2 (e86c870879, 2021-01-15)"><metadata
   id="metadata19"><rdf:RDF><cc:Work
       rdf:about=""><dc:format>image/svg+xml</dc:format><dc:type
         rdf:resource="http://purl.org/dc/dcmitype/StillImage" /></cc:Work></rdf:RDF></metadata><defs
   id="defs17" /><sodipodi:namedview
   pagecolor="#ffffff"
   bordercolor="#666666"
   borderopacity="1"
   objecttolerance="10"
   gridtolerance="10"
   guidetolerance="10"
   inkscape:pageopacity="0"
   inkscape:pageshadow="2"
   inkscape:window-width="1263"
   inkscape:window-height="459"
   id="namedview15"
   showgrid="false"
   inkscape:zoom="7.8997086"
   inkscape:cx="17.606568"
   inkscape:cy="23.471681"
   inkscape:window-x="1286"
   inkscape:window-y="976"
   inkscape:window-maximized="0"
   inkscape:current-layer="Icons" />
<style
   type="text/css"
   id="style2">
	.st0{fill:#FFFFFF;}
</style>
<g
   id="g6"
   style="fill:#808080">
	<path
   d="M31,26c-0.6,0-1-0.4-1-1V12c0-0.6,0.4-1,1-1s1,0.4,1,1v13C32,25.6,31.6,26,31,26z"
   id="path4"
   style="fill:#808080" />
</g>
<g
   id="g10"
   style="fill:#999999">
	<path
   d="M16,21c-0.2,0-0.3,0-0.5-0.1l-15-8C0.2,12.7,0,12.4,0,12s0.2-0.7,0.5-0.9l15-8c0.3-0.2,0.6-0.2,0.9,0l15,8   c0.3,0.2,0.5,0.5,0.5,0.9s-0.2,0.7-0.5,0.9l-15,8C16.3,21,16.2,21,16,21z"
   id="path8"
   style="fill:#999999" />
</g>
<path
   d="M17.4,22.6C17,22.9,16.5,23,16,23s-1-0.1-1.4-0.4L6,18.1V22c0,3.1,4.9,6,10,6s10-2.9,10-6v-3.9L17.4,22.6z"
   id="path12"
   style="fill:#808080" />
</svg>
