<svg width="170" height="24" xmlns="http://www.w3.org/2000/svg" fill="none">

 <g>
  <title>Layer 1</title>
  <g stroke="null">
   <g stroke="null">
    <path stroke="null" fill="white" d="m30.12264,21.9042c-0.57968,0 -0.96613,-0.37858 -0.96613,-0.94645l0,-12.30384c0,-0.56787 0.38645,-0.94645 0.96613,-0.94645s0.96613,0.37858 0.96613,0.94645l0,12.30384c0,0.56787 -0.38645,0.94645 -0.96613,0.94645z"/>
   </g>
   <g stroke="null">
    <path stroke="null" fill="white" d="m15.63068,17.17196c-0.19323,0 -0.28984,0 -0.48307,-0.09464l-14.49196,-7.57159c-0.28984,-0.18929 -0.48307,-0.47322 -0.48307,-0.8518s0.19323,-0.66251 0.48307,-0.8518l14.49196,-7.57159c0.28984,-0.18929 0.57968,-0.18929 0.86952,0l14.49196,7.57159c0.28984,0.18929 0.48307,0.47322 0.48307,0.8518s-0.19323,0.66251 -0.48307,0.8518l-14.49196,7.57159c-0.09661,0.09464 -0.19323,0.09464 -0.38645,0.09464z"/>
   </g>
   <path stroke="null" fill="white" d="m16.98326,18.68628c-0.38645,0.28393 -0.86952,0.37858 -1.35258,0.37858s-0.96613,-0.09464 -1.35258,-0.37858l-8.30872,-4.25902l0,3.69115c0,2.93399 4.73404,5.67869 9.66131,5.67869s9.66131,-2.7447 9.66131,-5.67869l0,-3.69115l-8.30872,4.25902z"/>
  </g>
  <text transform="matrix(1.03155 0 0 1.03155 -1.47522 0.0477206)" stroke="null" font-weight="bold" xml:space="preserve" text-anchor="start" font-family="'Open Sans'" font-size="17" id="svg_13" y="17.35908" x="47.17196" stroke-width="0" fill="white">College Degree</text>
 </g>
</svg>