<?xml version="1.0" encoding="utf-8"?>
<!-- Generator: Adobe Illustrator 26.0.1, SVG Export Plug-In . SVG Version: 6.00 Build 0)  -->
<svg version="1.1" id="Layer_1" xmlns="http://www.w3.org/2000/svg" xmlns:xlink="http://www.w3.org/1999/xlink" x="0px" y="0px"
	 viewBox="0 0 3000 3000" style="enable-background:new 0 0 3000 3000;" xml:space="preserve">
<style type="text/css">
	.st0{fill:#4285F4;}
	.st1{fill:#FBBC05;}
	.st2{fill:#EA4335;}
	.st3{display:none;fill:none;stroke:#000000;stroke-width:5.8978;stroke-miterlimit:10;}
	.st4{display:none;}
	.st5{fill-rule:evenodd;clip-rule:evenodd;fill:#1A1A1A;}
	.st6{display:inline;fill-rule:evenodd;clip-rule:evenodd;fill:#1A1A1A;}
	
		.st7{display:inline;fill-rule:evenodd;clip-rule:evenodd;fill:none;stroke:#13228E;stroke-width:19.6794;stroke-linecap:round;stroke-miterlimit:10;}
	.st8{fill:#FFFFFF;}
</style>
<g>
	<path class="st0" d="M2266.3,1442c0,58.9,1.4,117.9-0.4,176.8c-1.6,51.9,8.3,121.8-68.9,119.1c-62.5-2.2-60.3-64.8-60.8-113
		c-1.3-123.2,4.3-246.7-2.7-369.6c-18.1-316.8-247.7-551.8-572.4-592.9c-283.6-35.9-579.4,159.8-666.3,445
		c-44.5,146.2-20.2,298-26.2,447.4c-1.9,47.8-3,96.2-11.7,143c-4.8,26.1-28.6,46.6-58.5,45.7c-30.3-0.9-54.3-24-54.9-49.7
		c-5.5-255.4-49-517.7,84-755.3c118.1-210.9,295-348.2,540.3-389.1c461.7-77,869.9,247.3,896.3,715.8c3.3,58.7,0.5,117.8,0.5,176.8
		C2265.2,1442,2265.8,1442,2266.3,1442z"/>
	<path class="st1" d="M1375.6,1651.2c11.5,189.6,3.1,419-151.2,613.2c-33.2,41.8-64.9,122.6-135.4,73c-73.6-51.7-5.6-101.5,27-146.4
		c88.1-121.1,129.1-256.2,127.4-406c-1.7-150-2.6-300,1.1-449.9c4.3-172.1,110.4-290.9,254.9-293.3
		c143.4-2.3,252.1,118.8,255.7,289.5c2.7,128.5,5.1,257.2,0.5,385.6c-6.5,183.3,31.9,350.9,150.2,495.1
		c31.8,38.7,67.3,79.4,14.3,123c-55.4,45.5-88.3-6-117.7-41c-118.3-140.7-174.1-305.3-175.9-488.2c-1.5-155.3-0.7-310.7,0.2-466
		c0.5-90.6-25.8-167.2-129.9-163.9c-91.7,2.9-122,73.1-121.4,158.1C1376.1,1425.2,1375.6,1516.3,1375.6,1651.2z"/>
	<path class="st2" d="M1881.3,1546.1c0.2-85.6,3-171.4-0.4-256.9c-8.3-208.9-164.6-367.6-365.5-374.6
		c-194.3-6.8-367.4,130.9-386.9,332.7c-16.9,175-7.5,352.7-8.6,529.1c-0.6,97.5-11.4,192.1-63.5,277.6c-17.8,29.3-41,50.9-77.9,41.5
		c-38-9.7-55-45.2-42.8-74.2c105.9-253.1,32.9-519.9,63.7-778.4c32-268.9,246.7-456.3,514.9-450.2c265.1,6,477.4,206,494.7,474.1
		c7.9,122.6,1.6,246.1,3.3,369.2c1.6,117-13,236.4,43.9,346.4c22.1,42.7,28.2,85.8-22.2,109c-52.6,24.2-76.7-17.8-97.3-56.5
		c-60.6-113.5-58-237-55.7-360.4C1881.8,1631.7,1881.1,1588.9,1881.3,1546.1z"/>
</g>
</svg>
